# This file uses centimeters as units for non-parametric coordinates.

mtllib shekf.mtl
g default
v -1.384018 0.169818 0.500000
v 1.384018 0.169818 0.500000
v -1.384018 1.032338 0.500000
v 1.384018 1.032338 0.500000
v -1.384018 1.032338 -0.500000
v 1.384018 1.032338 -0.500000
v -1.384018 0.169818 -0.500000
v 1.384018 0.169818 -0.500000
v -1.107214 0.169818 0.500000
v -1.107214 0.169818 -0.500000
v 1.134894 0.169818 0.500000
v 1.134894 0.169818 -0.500000
v -1.384018 0.169818 0.300000
v -1.107214 0.169818 0.300000
v 1.134894 0.169818 0.300000
v 1.384018 0.169818 0.300000
v -1.384018 0.169818 -0.340000
v -1.107214 0.169818 -0.340000
v 1.134894 0.169818 -0.340000
v 1.384018 0.169818 -0.340000
v 1.134894 -0.026698 0.500000
v 1.134894 -0.026698 0.300000
v 1.384018 -0.026698 0.300000
v 1.384018 -0.026698 0.500000
v -1.384018 -0.026698 0.300000
v -1.107214 -0.026698 0.300000
v -1.107214 -0.026698 0.500000
v -1.384018 -0.026698 0.500000
v -1.384018 -0.026698 -0.500000
v -1.107214 -0.026698 -0.500000
v -1.107214 -0.026698 -0.340000
v -1.384018 -0.026698 -0.340000
v 1.134894 -0.026698 -0.340000
v 1.384018 -0.026698 -0.340000
v 1.134894 -0.026698 -0.500000
v 1.384018 -0.026698 -0.500000
v -1.384018 0.236247 0.500000
v -1.107214 0.236247 0.500000
v 1.134894 0.236247 0.500000
v 1.384018 0.236247 0.500000
v 1.384018 0.965910 0.500000
v -1.384018 0.965910 0.500000
v -1.322506 0.236247 0.500000
v -1.058005 0.236247 0.500000
v 1.084455 0.236247 0.500000
v 1.322506 0.236247 0.500000
v 1.322506 0.965910 0.500000
v -1.322506 0.965910 0.500000
v -1.322506 0.236247 -0.389377
v -1.058005 0.236247 -0.389377
v 1.084455 0.236247 -0.389377
v 1.322506 0.236247 -0.389377
v 1.322506 0.965910 -0.389377
v -1.322506 0.965910 -0.389377
vt 0.375000 0.000000
vt 0.625000 0.000000
vt 0.375000 0.250000
vt 0.625000 0.250000
vt 0.375000 0.500000
vt 0.625000 0.500000
vt 0.375000 0.750000
vt 0.625000 0.750000
vt 0.375000 1.000000
vt 0.625000 1.000000
vt 0.875000 0.000000
vt 0.875000 0.250000
vt 0.125000 0.000000
vt 0.125000 0.250000
vt 0.400000 0.000000
vt 0.400000 1.000000
vt 0.400000 0.750000
vt 0.602500 0.000000
vt 0.602500 1.000000
vt 0.602500 0.750000
vt 0.325000 0.000000
vt 0.375000 0.950000
vt 0.400000 0.950000
vt 0.602500 0.950000
vt 0.625000 0.950000
vt 0.675000 0.000000
vt 0.165000 0.000000
vt 0.375000 0.790000
vt 0.400000 0.790000
vt 0.602500 0.790000
vt 0.625000 0.790000
vt 0.835000 0.000000
vt 0.602500 1.000000
vt 0.602500 0.950000
vt 0.625000 0.950000
vt 0.625000 1.000000
vt 0.375000 0.950000
vt 0.400000 0.950000
vt 0.400000 1.000000
vt 0.375000 1.000000
vt 0.375000 0.750000
vt 0.400000 0.750000
vt 0.400000 0.790000
vt 0.375000 0.790000
vt 0.625000 0.790000
vt 0.602500 0.790000
vt 0.602500 0.750000
vt 0.625000 0.750000
vt 0.375000 0.000000
vt 0.400000 0.000000
vt 0.602500 0.000000
vt 0.625000 0.000000
vt 0.625000 0.250000
vt 0.375000 0.250000
vt 0.375000 0.000000
vt 0.400000 0.000000
vt 0.602500 0.000000
vt 0.625000 0.000000
vt 0.625000 0.250000
vt 0.375000 0.250000
vt 0.375000 0.000000
vt 0.400000 0.000000
vt 0.602500 0.000000
vt 0.625000 0.000000
vt 0.625000 0.250000
vt 0.375000 0.250000
vn 0.000000 0.000000 1.000000
vn 0.000000 0.000000 1.000000
vn 0.000000 0.000000 1.000000
vn 0.000000 0.000000 1.000000
vn 0.000000 0.000000 1.000000
vn 0.000000 0.000000 1.000000
vn 0.000000 1.000000 0.000000
vn 0.000000 1.000000 0.000000
vn 0.000000 1.000000 0.000000
vn 0.000000 1.000000 0.000000
vn 0.000000 0.000000 -1.000000
vn 0.000000 0.000000 -1.000000
vn 0.000000 0.000000 -1.000000
vn 0.000000 0.000000 -1.000000
vn 0.000000 0.000000 -1.000000
vn 0.000000 0.000000 -1.000000
vn 0.000000 -1.000000 0.000000
vn 0.000000 -1.000000 0.000000
vn 0.000000 -1.000000 0.000000
vn 0.000000 -1.000000 0.000000
vn 1.000000 0.000000 0.000000
vn 1.000000 0.000000 0.000000
vn 1.000000 0.000000 0.000000
vn 1.000000 0.000000 0.000000
vn 1.000000 0.000000 0.000000
vn 1.000000 0.000000 0.000000
vn -1.000000 -0.000000 0.000000
vn -1.000000 -0.000000 0.000000
vn -1.000000 -0.000000 0.000000
vn -1.000000 -0.000000 0.000000
vn -1.000000 -0.000000 0.000000
vn -1.000000 -0.000000 0.000000
vn 0.000000 -1.000000 0.000000
vn 0.000000 -1.000000 0.000000
vn 0.000000 -1.000000 0.000000
vn 0.000000 -1.000000 0.000000
vn 0.000000 -1.000000 0.000000
vn 0.000000 -1.000000 0.000000
vn 0.000000 -1.000000 0.000000
vn 0.000000 -1.000000 0.000000
vn 0.000000 -1.000000 0.000000
vn 0.000000 -1.000000 0.000000
vn 0.000000 -1.000000 0.000000
vn 0.000000 -1.000000 0.000000
vn 0.000000 -1.000000 0.000000
vn 0.000000 -1.000000 0.000000
vn 0.000000 -1.000000 0.000000
vn 0.000000 -1.000000 0.000000
vn 0.000000 -1.000000 0.000000
vn 0.000000 -1.000000 0.000000
vn 0.000000 -1.000000 0.000000
vn 0.000000 -1.000000 0.000000
vn 0.000000 -1.000000 0.000000
vn 0.000000 -1.000000 0.000000
vn 0.000000 -1.000000 0.000000
vn 0.000000 -1.000000 0.000000
vn -1.000000 0.000000 0.000000
vn -1.000000 0.000000 0.000000
vn -1.000000 0.000000 0.000000
vn -1.000000 0.000000 0.000000
vn 0.000000 0.000000 -1.000000
vn 0.000000 0.000000 -1.000000
vn 0.000000 0.000000 -1.000000
vn 0.000000 0.000000 -1.000000
vn 1.000000 0.000000 0.000000
vn 1.000000 0.000000 0.000000
vn 1.000000 0.000000 0.000000
vn 1.000000 0.000000 0.000000
vn 0.000000 0.000000 1.000000
vn 0.000000 0.000000 1.000000
vn 0.000000 0.000000 1.000000
vn 0.000000 0.000000 1.000000
vn 0.000000 0.000000 -1.000000
vn 0.000000 0.000000 -1.000000
vn 0.000000 0.000000 -1.000000
vn 0.000000 0.000000 -1.000000
vn 1.000000 0.000000 0.000000
vn 1.000000 0.000000 0.000000
vn 1.000000 0.000000 0.000000
vn 1.000000 0.000000 0.000000
vn 0.000000 0.000000 1.000000
vn 0.000000 0.000000 1.000000
vn 0.000000 0.000000 1.000000
vn 0.000000 0.000000 1.000000
vn -1.000000 0.000000 0.000000
vn -1.000000 0.000000 0.000000
vn -1.000000 0.000000 0.000000
vn -1.000000 0.000000 0.000000
vn 0.000000 0.000000 -1.000000
vn 0.000000 0.000000 -1.000000
vn 0.000000 0.000000 -1.000000
vn 0.000000 0.000000 -1.000000
vn 1.000000 0.000000 0.000000
vn 1.000000 0.000000 0.000000
vn 1.000000 0.000000 0.000000
vn 1.000000 0.000000 0.000000
vn 0.000000 0.000000 1.000000
vn 0.000000 0.000000 1.000000
vn 0.000000 0.000000 1.000000
vn 0.000000 0.000000 1.000000
vn -1.000000 0.000000 0.000000
vn -1.000000 0.000000 0.000000
vn -1.000000 0.000000 0.000000
vn -1.000000 0.000000 0.000000
vn 0.000000 0.000000 1.000000
vn 0.000000 0.000000 1.000000
vn 0.000000 0.000000 1.000000
vn 0.000000 0.000000 1.000000
vn -1.000000 0.000000 0.000000
vn -1.000000 0.000000 0.000000
vn -1.000000 0.000000 0.000000
vn -1.000000 0.000000 0.000000
vn 0.000000 0.000000 -1.000000
vn 0.000000 0.000000 -1.000000
vn 0.000000 0.000000 -1.000000
vn 0.000000 0.000000 -1.000000
vn 1.000000 0.000000 0.000000
vn 1.000000 0.000000 0.000000
vn 1.000000 0.000000 0.000000
vn 1.000000 0.000000 0.000000
vn 0.000000 0.000000 1.000000
vn 0.000000 0.000000 1.000000
vn 0.000000 0.000000 1.000000
vn 0.000000 0.000000 1.000000
vn 0.000000 0.000000 1.000000
vn 0.000000 0.000000 1.000000
vn 0.000000 0.000000 1.000000
vn 0.000000 0.000000 1.000000
vn 0.000000 0.000000 1.000000
vn 0.000000 0.000000 1.000000
vn 0.000000 0.000000 1.000000
vn 0.000000 0.000000 1.000000
vn 0.000000 0.000000 0.000000
vn 0.000000 0.000000 0.000000
vn 0.000000 0.000000 0.000000
vn 0.000000 0.000000 0.000000
vn 0.000000 0.000000 1.000000
vn 0.000000 0.000000 1.000000
vn 0.000000 0.000000 1.000000
vn 0.000000 0.000000 1.000000
vn 0.000000 0.000000 0.000000
vn 0.000000 0.000000 0.000000
vn 0.000000 0.000000 0.000000
vn 0.000000 0.000000 0.000000
vn 0.000000 0.000000 0.000000
vn 0.000000 0.000000 1.000000
vn 0.000000 0.000000 0.000000
vn 0.000000 0.000000 1.000000
vn 0.000000 0.000000 -0.000000
vn 0.000000 0.000000 -0.000000
vn 0.000000 0.000000 -0.000000
vn 0.000000 0.000000 -0.000000
vn 0.000000 0.000000 0.000000
vn 0.000000 0.000000 0.000000
vn 0.000000 0.000000 0.000000
vn 0.000000 0.000000 0.000000
vn 0.000000 0.000000 1.000000
vn 0.000000 0.000000 1.000000
vn 0.000000 0.000000 1.000000
vn 0.000000 0.000000 1.000000
vn 0.000000 0.000000 -0.000000
vn 0.000000 0.000000 -0.000000
vn 0.000000 0.000000 -1.000000
vn 0.000000 0.000000 -1.000000
vn 0.000000 0.000000 1.000000
vn 0.000000 0.000000 1.000000
vn 0.000000 0.000000 1.000000
vn 0.000000 0.000000 1.000000
vn 0.000000 1.000000 0.000000
vn 0.000000 1.000000 0.000000
vn 0.000000 1.000000 0.000000
vn 0.000000 1.000000 0.000000
vn 0.000000 1.000000 0.000000
vn 0.000000 1.000000 0.000000
vn 0.000000 1.000000 0.000000
vn 0.000000 1.000000 0.000000
vn 0.000000 1.000000 0.000000
vn 0.000000 1.000000 0.000000
vn 0.000000 1.000000 0.000000
vn 0.000000 1.000000 0.000000
vn -1.000000 0.000000 0.000000
vn -1.000000 0.000000 0.000000
vn -1.000000 0.000000 0.000000
vn -1.000000 0.000000 0.000000
vn 0.000000 -1.000000 0.000000
vn 0.000000 -1.000000 0.000000
vn 0.000000 -1.000000 0.000000
vn 0.000000 -1.000000 0.000000
vn 1.000000 0.000000 0.000000
vn 1.000000 0.000000 0.000000
vn 1.000000 0.000000 0.000000
vn 1.000000 0.000000 0.000000
s off
g pCube1
usemtl initialShadingGroup
f 49/61/1 50/62/2 51/63/3 52/64/4 53/65/5 54/66/6
f 3/3/7 4/4/8 6/6/9 5/5/10
f 5/5/11 6/6/12 8/8/13 12/20/14 10/17/15 7/7/16
f 21/33/17 22/34/18 23/35/19 24/36/20
f 2/2/21 16/26/22 20/32/23 8/11/24 6/12/25 4/4/26
f 7/13/27 17/27/28 13/21/29 1/1/30 3/3/31 5/14/32
f 25/37/33 26/38/34 27/39/35 28/40/36
s 1
f 9/16/37 14/23/38 15/24/39 11/19/40
f 17/28/41 18/29/42 14/23/38 13/22/43
f 15/24/39 14/23/38 18/29/42 19/30/44
f 16/25/45 15/24/39 19/30/44 20/31/46
s off
f 29/41/47 30/42/48 31/43/49 32/44/50
s 1
f 19/30/44 18/29/42 10/17/51 12/20/52
s off
f 34/45/53 33/46/54 35/47/55 36/48/56
f 11/19/57 15/24/58 22/34/59 21/33/60
f 15/24/61 16/25/62 23/35/63 22/34/64
f 16/25/65 2/10/66 24/36/67 23/35/68
f 2/10/69 11/19/70 21/33/71 24/36/72
f 13/22/73 14/23/74 26/38/75 25/37/76
f 14/23/77 9/16/78 27/39/79 26/38/80
f 9/16/81 1/9/82 28/40/83 27/39/84
f 1/9/85 13/22/86 25/37/87 28/40/88
f 7/7/89 10/17/90 30/42/91 29/41/92
f 10/17/93 18/29/94 31/43/95 30/42/96
f 18/29/97 17/28/98 32/44/99 31/43/100
f 17/28/101 7/7/102 29/41/103 32/44/104
f 20/31/105 19/30/106 33/46/107 34/45/108
f 19/30/109 12/20/110 35/47/111 33/46/112
f 12/20/113 8/8/114 36/48/115 35/47/116
f 8/8/117 20/31/118 34/45/119 36/48/120
f 1/1/121 9/15/122 38/50/123 37/49/124
f 9/15/125 11/18/126 39/51/127 38/50/128
f 11/18/129 2/2/130 40/52/131 39/51/132
f 2/2/133 4/4/134 41/53/135 40/52/136
f 4/4/137 3/3/138 42/54/139 41/53/140
f 3/3/141 1/1/142 37/49/143 42/54/144
f 37/49/145 38/50/146 44/56/147 43/55/148
f 38/50/149 39/51/150 45/57/151 44/56/152
f 39/51/153 40/52/154 46/58/155 45/57/156
f 40/52/157 41/53/158 47/59/159 46/58/160
f 41/53/161 42/54/162 48/60/163 47/59/164
f 42/54/165 37/49/166 43/55/167 48/60/168
f 43/55/169 44/56/170 50/62/171 49/61/172
f 44/56/173 45/57/174 51/63/175 50/62/176
f 45/57/177 46/58/178 52/64/179 51/63/180
f 46/58/181 47/59/182 53/65/183 52/64/184
f 47/59/185 48/60/186 54/66/187 53/65/188
f 48/60/189 43/55/190 49/61/191 54/66/192
